<svg width="16" height="16" viewBox="0 0 16 16" fill="none" xmlns="http://www.w3.org/2000/svg">
<g clip-path="url(#clip0_48_8)">
<path d="M15.375 6.7C14.775 3.175 11.7 0.5 8 0.5C4.3 0.5 1.225 3.175 0.625 6.7L8 3L15.375 6.7ZM0.625 9.3C1.225 12.825 4.3 15.5 8 15.5C11.7 15.5 14.775 12.825 15.375 9.3L8 13L0.625 9.3Z" fill="#699635"/>
<path d="M8 3L0.625 6.7C0.55 7.125 0.5 7.55 0.5 8C0.5 8.45 0.55 8.875 0.625 9.3L8 13L15.375 9.3C15.45 8.875 15.5 8.45 15.5 8C15.5 7.55 15.45 7.125 15.375 6.7L8 3Z" fill="#FFE62E"/>
<path d="M6.5 7.09998C5.7 7.09998 4.95 7.27498 4.275 7.57498C4.25 7.72498 4.25 7.84998 4.25 7.99998C4.25 10.075 5.925 11.75 8 11.75C9.4 11.75 10.625 10.975 11.275 9.84998C10.35 8.22498 8.55 7.09998 6.5 7.09998Z" fill="#428BC1"/>
<path d="M11.7 8.6C11.725 8.4 11.75 8.2 11.75 8C11.75 5.925 10.075 4.25 8 4.25C6.525 4.25 5.25 5.1 4.625 6.35C5.225 6.175 5.85 6.075 6.5 6.075C8.625 6.075 10.5 7.075 11.7 8.6Z" fill="#428BC1"/>
<path d="M6.49999 6.07501C5.84999 6.07501 5.22499 6.17501 4.62499 6.35001C4.44999 6.72501 4.32499 7.12501 4.27499 7.57501C4.94999 7.27501 5.69999 7.10001 6.49999 7.10001C8.54999 7.10001 10.35 8.20001 11.275 9.82501C11.5 9.45001 11.625 9.02501 11.7 8.60001C10.5 7.07501 8.62499 6.07501 6.49999 6.07501Z" fill="white"/>
<path d="M5.5 8.25C5.63807 8.25 5.75 8.13807 5.75 8C5.75 7.86193 5.63807 7.75 5.5 7.75C5.36193 7.75 5.25 7.86193 5.25 8C5.25 8.13807 5.36193 8.25 5.5 8.25Z" fill="white"/>
<path d="M6.5 9.75C6.63807 9.75 6.75 9.63807 6.75 9.5C6.75 9.36193 6.63807 9.25 6.5 9.25C6.36193 9.25 6.25 9.36193 6.25 9.5C6.25 9.63807 6.36193 9.75 6.5 9.75Z" fill="white"/>
<path d="M8 9.75C8.13807 9.75 8.25 9.63807 8.25 9.5C8.25 9.36193 8.13807 9.25 8 9.25C7.86193 9.25 7.75 9.36193 7.75 9.5C7.75 9.63807 7.86193 9.75 8 9.75Z" fill="white"/>
<path d="M8 10.75C8.13807 10.75 8.25 10.6381 8.25 10.5C8.25 10.3619 8.13807 10.25 8 10.25C7.86193 10.25 7.75 10.3619 7.75 10.5C7.75 10.6381 7.86193 10.75 8 10.75Z" fill="white"/>
<path d="M10 9.75C10.1381 9.75 10.25 9.63807 10.25 9.5C10.25 9.36193 10.1381 9.25 10 9.25C9.86193 9.25 9.75 9.36193 9.75 9.5C9.75 9.63807 9.86193 9.75 10 9.75Z" fill="white"/>
<path d="M10 10.75C10.1381 10.75 10.25 10.6381 10.25 10.5C10.25 10.3619 10.1381 10.25 10 10.25C9.86193 10.25 9.75 10.3619 9.75 10.5C9.75 10.6381 9.86193 10.75 10 10.75Z" fill="white"/>
<path d="M9 10.25C9.13807 10.25 9.25 10.1381 9.25 10C9.25 9.86193 9.13807 9.75 9 9.75C8.86193 9.75 8.75 9.86193 8.75 10C8.75 10.1381 8.86193 10.25 9 10.25Z" fill="white"/>
<path d="M5.5 9.25C5.63807 9.25 5.75 9.13807 5.75 9C5.75 8.86193 5.63807 8.75 5.5 8.75C5.36193 8.75 5.25 8.86193 5.25 9C5.25 9.13807 5.36193 9.25 5.5 9.25Z" fill="white"/>
</g>
<defs>
<clipPath id="clip0_48_8">
<rect width="16" height="16" fill="white"/>
</clipPath>
</defs>
</svg>
