<svg width="15" height="15" viewBox="0 0 15 15" fill="none" xmlns="http://www.w3.org/2000/svg">
<path d="M11.5 1.15C10.325 0.425 8.975 0 7.5 0V1.15H11.5Z" fill="#ED4C5C"/>
<path d="M7.5 2.3H12.9C12.475 1.875 12 1.475 11.5 1.15H7.5V2.3Z" fill="white"/>
<path d="M7.5 3.45H13.825C13.55 3.025 13.25 2.65 12.925 2.3H7.5V3.45Z" fill="#ED4C5C"/>
<path d="M7.5 4.6H14.425C14.25 4.2 14.05 3.8 13.825 3.45H7.5V4.6Z" fill="white"/>
<path d="M7.5 5.75H14.8C14.7 5.35 14.575 4.975 14.425 4.6H7.5V5.75Z" fill="#ED4C5C"/>
<path d="M7.5 6.925H14.975C14.95 6.525 14.875 6.15 14.8 5.775H7.5V6.925Z" fill="white"/>
<path d="M14.975 6.925H7.5V7.5H0C0 7.7 -2.42144e-08 7.875 0.025 8.075H14.975C15 7.875 15 7.7 15 7.5C15 7.3 15 7.1 14.975 6.925Z" fill="#ED4C5C"/>
<path d="M0.2 9.225H14.8C14.9 8.85 14.95 8.475 14.975 8.075H0.025C0.05 8.45 0.1 8.85 0.2 9.225Z" fill="white"/>
<path d="M0.575 10.375H14.425C14.575 10 14.7 9.625 14.8 9.225H0.2C0.3 9.625 0.425 10 0.575 10.375Z" fill="#ED4C5C"/>
<path d="M1.175 11.525H13.825C14.05 11.15 14.25 10.775 14.425 10.375H0.575C0.75 10.775 0.95 11.15 1.175 11.525Z" fill="white"/>
<path d="M2.075 12.675H12.925C13.25 12.325 13.575 11.925 13.825 11.525H1.175C1.425 11.95 1.75 12.325 2.075 12.675Z" fill="#ED4C5C"/>
<path d="M3.475 13.825H11.525C12.05 13.5 12.5 13.1 12.925 12.675H2.075C2.5 13.125 2.975 13.5 3.475 13.825Z" fill="white"/>
<path d="M7.5 15C8.975 15 10.35 14.575 11.525 13.825H3.475C4.65 14.575 6.025 15 7.5 15Z" fill="#ED4C5C"/>
<path d="M3.5 1.15C2.975 1.475 2.5 1.875 2.075 2.3C1.725 2.65 1.425 3.05 1.175 3.45C0.95 3.825 0.725 4.2 0.575 4.6C0.425 4.975 0.3 5.35 0.2 5.75C0.1 6.125 0.05 6.5 0.025 6.9C-2.42144e-08 7.1 0 7.3 0 7.5H7.5V0C6.025 0 4.675 0.425 3.5 1.15Z" fill="#428BC1"/>
<path d="M5.75 0.25L5.875 0.625H6.25L5.95 0.875L6.05 1.25L5.75 1.025L5.45 1.25L5.55 0.875L5.25 0.625H5.625L5.75 0.25ZM6.75 1.75L6.875 2.125H7.25L6.95 2.375L7.05 2.75L6.75 2.525L6.45 2.75L6.55 2.375L6.25 2.125H6.625L6.75 1.75ZM4.75 1.75L4.875 2.125H5.25L4.95 2.375L5.05 2.75L4.75 2.525L4.45 2.75L4.55 2.375L4.25 2.125H4.625L4.75 1.75ZM5.75 3.25L5.875 3.625H6.25L5.95 3.875L6.05 4.25L5.75 4.025L5.45 4.25L5.55 3.875L5.25 3.625H5.625L5.75 3.25ZM3.75 3.25L3.875 3.625H4.25L3.95 3.875L4.05 4.25L3.75 4.025L3.45 4.25L3.55 3.875L3.25 3.625H3.625L3.75 3.25ZM1.75 3.25L1.875 3.625H2.25L1.95 3.875L2.05 4.25L1.75 4.025L1.45 4.25L1.55 3.875L1.25 3.625H1.625L1.75 3.25ZM6.75 4.75L6.875 5.125H7.25L6.95 5.375L7.05 5.75L6.75 5.525L6.45 5.75L6.55 5.375L6.25 5.125H6.625L6.75 4.75ZM4.75 4.75L4.875 5.125H5.25L4.95 5.375L5.05 5.75L4.75 5.525L4.45 5.75L4.55 5.375L4.25 5.125H4.625L4.75 4.75ZM2.75 4.75L2.875 5.125H3.25L2.95 5.375L3.05 5.75L2.75 5.525L2.45 5.75L2.55 5.375L2.25 5.125H2.625L2.75 4.75ZM5.75 6.25L5.875 6.625H6.25L5.95 6.875L6.05 7.25L5.75 7.025L5.45 7.25L5.55 6.875L5.25 6.625H5.625L5.75 6.25ZM3.75 6.25L3.875 6.625H4.25L3.95 6.875L4.05 7.25L3.75 7.025L3.45 7.25L3.55 6.875L3.25 6.625H3.625L3.75 6.25ZM1.75 6.25L1.875 6.625H2.25L1.95 6.875L2.05 7.25L1.75 7.025L1.45 7.25L1.55 6.875L1.25 6.625H1.625L1.75 6.25ZM2.45 2.75L2.75 2.525L3.05 2.75L2.925 2.375L3.225 2.125H2.85L2.75 1.75L2.625 2.125H2.275L2.575 2.35L2.45 2.75ZM0.45 5.75L0.75 5.525L1.05 5.75L0.925 5.375L1.225 5.125H0.875L0.75 4.75L0.625 5.125H0.375C0.375 5.15 0.35 5.175 0.35 5.2L0.55 5.35L0.45 5.75Z" fill="white"/>
</svg>
