<svg width="232" height="223" viewBox="0 0 232 223" fill="none" xmlns="http://www.w3.org/2000/svg">
<path d="M229.181 200.008C220.477 214.856 207.506 222.28 190.269 222.28C178.152 222.28 168.082 220.147 160.061 215.88C152.21 211.613 144.786 204.104 137.789 193.352L124.477 172.872C119.357 165.192 114.066 159.987 108.605 157.256C103.144 154.525 94.4397 153.16 82.493 153.16H74.045V165.96C74.045 169.373 74.7277 171.848 76.093 173.384C77.629 174.749 80.1037 175.432 83.517 175.432H113.213V208.2C113.213 212.979 112.274 216.307 110.397 218.184C108.52 220.061 105.192 221 100.413 221H12.861C8.08233 221 4.75433 220.061 2.877 218.184C0.999667 216.307 0.0610003 212.979 0.0610003 208.2V175.432H18.749C26.429 175.432 31.7197 173.981 34.621 171.08C37.693 168.008 39.229 162.632 39.229 154.952V120.648C39.229 112.627 37.7783 107.251 34.877 104.52C31.9757 101.619 26.5997 100.168 18.749 100.168H0.0610003V67.4C0.0610003 62.6213 0.999667 59.2933 2.877 57.416C4.75433 55.5387 8.08233 54.6 12.861 54.6H139.325C164.925 54.6 182.504 58.3547 192.061 65.864C201.618 73.3733 206.397 86.7707 206.397 106.056C206.397 123.123 201.789 135.24 192.573 142.408C183.357 149.576 166.973 153.16 143.421 153.16L154.685 165.192C157.928 168.435 161.085 170.653 164.157 171.848C167.229 172.872 171.24 173.384 176.189 173.384C181.65 173.384 186.173 172.36 189.757 170.312C193.341 168.093 196.925 164.509 200.509 159.56L228.157 185.928C232.082 189.683 232.424 194.376 229.181 200.008ZM83.517 126.536H151.357C157.672 126.536 162.109 125.597 164.669 123.72C167.4 121.672 168.765 118.173 168.765 113.224C168.765 108.445 167.4 105.117 164.669 103.24C162.109 101.192 157.672 100.168 151.357 100.168H83.517C79.7623 100.168 77.2023 100.851 75.837 102.216C74.6423 103.411 74.045 105.885 74.045 109.64V117.064C74.045 120.819 74.6423 123.379 75.837 124.744C77.2023 125.939 79.7623 126.536 83.517 126.536Z" fill="#FEFBF6"/>
<path d="M0 4C0 1.79086 1.79086 0 4 0H184C186.209 0 188 1.79086 188 4V28C188 30.2091 186.209 32 184 32H4C1.79086 32 0 30.2091 0 28V4Z" fill="#FEFBF6"/>
</svg>
